<?xml version="1.0" standalone="no"?>
<!DOCTYPE svg PUBLIC "-//W3C//DTD SVG 20010904//EN"
 "http://www.w3.org/TR/2001/REC-SVG-20010904/DTD/svg10.dtd">
<svg version="1.0" xmlns="http://www.w3.org/2000/svg"
 width="85.000000pt" height="90.000000pt" viewBox="0 0 85.000000 90.000000"
 preserveAspectRatio="xMidYMid meet">

<g transform="translate(0.000000,90.000000) scale(0.100000,-0.100000)"
fill="#000000" stroke="none">
<path d="M384 816 c-7 -28 11 -90 34 -121 14 -19 14 -19 8 5 -3 14 -6 51 -6
83 0 44 -3 57 -15 57 -8 0 -17 -11 -21 -24z"/>
<path d="M475 811 c-3 -5 -1 -12 5 -16 5 -3 10 1 10 9 0 18 -6 21 -15 7z"/>
<path d="M505 745 c19 -87 18 -96 -4 -102 -28 -7 -27 -25 2 -21 20 3 22 8 21
59 -1 30 -7 64 -13 75 -11 17 -11 15 -6 -11z"/>
<path d="M230 750 c0 -5 11 -10 24 -10 14 0 36 -4 50 -10 39 -14 31 -1 -9 16
-40 16 -65 18 -65 4z"/>
<path d="M490 602 c0 -4 7 -18 16 -30 29 -42 6 -52 -122 -52 -62 0 -115 -4
-119 -10 -8 -14 35 -76 66 -94 15 -9 45 -16 66 -16 34 0 45 7 86 50 26 27 47
53 47 57 0 4 -5 2 -12 -5 -23 -23 -29 -12 -9 14 28 36 29 94 1 94 -11 0 -20
-3 -20 -8z"/>
</g>
</svg>
